<svg width="35" height="35" viewBox="0 0 35 35" fill="none" xmlns="http://www.w3.org/2000/svg">
<path d="M25.8692 13.6955H16.3584V18.2607H25.8692V13.6955Z" fill="#FF0101"/>
<path d="M25.8692 6.84778H16.3584V11.413H25.8692V6.84778Z" fill="#FF0101"/>
<path d="M14.076 6.84778H9.13037V18.2607H14.076V6.84778Z" fill="#FF0101"/>
<path d="M24.7089 32.7757L18.6412 30.7531V27.391H16.3585V30.7532L10.2911 32.7756C9.69294 32.9748 9.37043 33.6212 9.56962 34.219C9.7693 34.8197 10.4192 35.1401 11.0134 34.9408L17.5 32.7786L23.9866 34.9408C24.5812 35.1402 25.2308 34.8192 25.4304 34.219C25.6295 33.6213 25.3071 32.9748 24.7089 32.7757Z" fill="#FF0101"/>
<path d="M33.8583 22.8259H32.7171V2.28259H33.8583C34.4884 2.28259 34.9996 1.77174 34.9996 1.14133C34.9996 0.510851 34.4884 0 33.8583 0C19.1841 0 16.1221 0 1.14126 0C0.511192 0 0 0.510851 0 1.14126C0 1.77174 0.511192 2.28252 1.14126 2.28252H2.28252V22.8258H1.14126C0.511192 22.8258 0 23.3366 0 23.967C0 24.5975 0.511192 25.1083 1.14126 25.1083C4.9899 25.1083 30.3085 25.1083 33.8583 25.1083C34.4883 25.1083 34.9995 24.5975 34.9995 23.967C34.9996 23.3367 34.4884 22.8259 33.8583 22.8259ZM28.1519 19.4019C28.1519 20.0324 27.6407 20.5432 27.0106 20.5432H7.98904C7.35897 20.5432 6.84778 20.0323 6.84778 19.4019V5.70645C6.84778 5.07597 7.35897 4.56518 7.98904 4.56518H27.0106C27.6406 4.56518 28.1518 5.07604 28.1518 5.70645V19.4019H28.1519Z" fill="#FF0101"/>
</svg>
