<svg width="35" height="35" viewBox="0 0 35 35" fill="none" xmlns="http://www.w3.org/2000/svg">
<path d="M4.16992 33.9746C4.16992 34.5409 4.62903 35 5.19532 35H29.8047C30.371 35 30.8301 34.5409 30.8301 33.9746V30.8301H4.16992V33.9746Z" fill="#FF0101"/>
<path d="M17.5 8.20312C11.846 8.20312 7.24609 12.803 7.24609 18.4571V28.7793H27.754V18.4571C27.754 12.803 23.154 8.20312 17.5 8.20312Z" fill="#FF0101"/>
<path d="M17.4317 6.15234C17.998 6.15234 18.4571 5.69324 18.4571 5.12696V1.0254C18.4571 0.459101 17.998 0 17.4317 0C16.8654 0 16.4062 0.459101 16.4062 1.0254V5.12696C16.4062 5.69324 16.8654 6.15234 17.4317 6.15234Z" fill="#FF0101"/>
<path d="M9.35777 7.60172C9.64188 8.0937 10.2694 8.25934 10.7585 7.97701C11.249 7.69387 11.417 7.06674 11.1338 6.57633L9.08302 3.02431C8.79978 2.53383 8.17273 2.36588 7.68232 2.64902C7.19184 2.93216 7.02381 3.55929 7.30702 4.0497L9.35777 7.60172Z" fill="#FF0101"/>
<path d="M5.89193 12.8937C6.17514 12.4033 6.00711 11.7761 5.51663 11.493L1.96454 9.44222C1.47406 9.15898 0.846935 9.32707 0.563859 9.81751C0.280646 10.3079 0.448673 10.9351 0.939155 11.2182L4.49124 13.2689C4.97953 13.551 5.60755 13.3863 5.89193 12.8937Z" fill="#FF0101"/>
<path d="M24.2414 7.97703C24.7297 8.25901 25.3577 8.09426 25.6421 7.60173L27.6929 4.04972C27.9761 3.5593 27.8081 2.93217 27.3175 2.64903C26.8272 2.36575 26.2 2.53385 25.9169 3.02432L23.8661 6.57635C23.5829 7.06676 23.751 7.69388 24.2414 7.97703Z" fill="#FF0101"/>
<path d="M34.4359 9.81749C34.1526 9.32697 33.5256 9.15914 33.0352 9.44221L29.4831 11.4929C28.9926 11.7761 28.8246 12.4032 29.1078 12.8936C29.3919 13.3857 30.0194 13.5513 30.5084 13.2689L34.0606 11.2182C34.551 10.935 34.719 10.3079 34.4359 9.81749Z" fill="#FF0101"/>
</svg>
