<svg width="30" height="30" viewBox="0 0 30 30" fill="none" xmlns="http://www.w3.org/2000/svg">
<path d="M19.303 7.04168C19.3136 7.03641 19.3248 7.03143 19.3354 7.02615C20.8072 6.29027 21.6177 5.20506 21.6177 3.97055C21.6177 2.73604 20.8071 1.65082 19.3354 0.914941C18.1553 0.324961 16.6156 0 15 0C13.3844 0 11.8447 0.324961 10.6646 0.915C9.19285 1.65088 8.38232 2.73609 8.38232 3.97061C8.38232 5.20512 9.19285 6.29033 10.6646 7.02621C10.6752 7.03149 10.6863 7.03647 10.697 7.04174C9.54207 8.16399 8.82354 9.73301 8.82354 11.4706C8.82354 14.8818 11.5888 17.6471 15 17.6471C18.4112 17.6471 21.1765 14.8818 21.1765 11.4706C21.1765 9.73295 20.4579 8.16399 19.303 7.04168ZM18.1516 4.65855C17.3438 5.0625 16.1951 5.29412 15 5.29412C13.8049 5.29412 12.6563 5.0625 11.8484 4.65855C11.1719 4.32023 11.0294 4.01648 11.0294 3.97061C11.0294 3.92473 11.1718 3.62092 11.8484 3.28266C12.6563 2.87871 13.8049 2.64709 15 2.64709C16.1951 2.64709 17.3438 2.87871 18.1516 3.28266C18.8283 3.62098 18.9706 3.92473 18.9706 3.97061C18.9706 4.01648 18.8283 4.32029 18.1516 4.65855Z" fill="#BFAC8E"/>
<path d="M26.8854 26.6224C25.882 23.0844 23.341 20.1931 20.0307 18.715C18.6026 19.7098 16.8683 20.2941 14.9998 20.2941C13.1313 20.2941 11.3971 19.7098 9.96901 18.7151C6.65869 20.1931 4.11778 23.0844 3.11436 26.6225C2.63407 28.3157 3.89934 30 5.65932 30H24.3404C26.1003 30 27.3655 28.3157 26.8854 26.6224Z" fill="#BFAC8E"/>
<path d="M23.7782 12.353C23.6142 13.9962 22.9991 15.5084 22.0566 16.7621C23.6957 17.635 25.1398 18.7922 26.333 20.1659C28.0734 18.0371 29.1178 15.3172 29.1178 12.353H23.7782Z" fill="#BFAC8E"/>
<path d="M6.22203 12.353H0.882324C0.882324 15.3172 1.92676 18.0371 3.66711 20.1659C4.86031 18.7922 6.30447 17.635 7.94363 16.7621C7.00109 15.5084 6.38609 13.9962 6.22203 12.353Z" fill="#BFAC8E"/>
</svg>
