<svg width="35" height="35" viewBox="0 0 35 35" fill="none" xmlns="http://www.w3.org/2000/svg">
<path d="M32.6441 25.5096L28.5383 22.2115C27.596 21.4711 26.2499 21.4038 25.3076 22.1442L21.8076 24.7019C21.4037 25.0384 20.798 24.9711 20.3941 24.5673L15.1441 19.8558L10.4326 14.6058C10.0287 14.2019 10.0287 13.6634 10.298 13.1923L12.8557 9.69229C13.596 8.74999 13.5287 7.40383 12.7883 6.46152L9.49027 2.35576C8.48066 1.14422 6.66335 1.0096 5.51912 2.15383L2.01912 5.65383C1.48066 6.19229 1.21143 6.93268 1.21143 7.67306C1.54796 14.5384 4.64412 21.0673 9.22104 25.6442C13.798 30.2211 20.3268 33.3173 27.1922 33.6538C27.9326 33.7211 28.673 33.3846 29.2114 32.8461L32.7114 29.3461C33.9903 28.3365 33.923 26.4519 32.6441 25.5096Z" fill="#FF0101"/>
</svg>
