<svg width="35" height="35" viewBox="0 0 35 35" fill="none" xmlns="http://www.w3.org/2000/svg">
<path d="M30.625 24.0625C29.0128 24.0625 27.6172 24.9484 26.8581 26.25H7.65625C5.84719 26.25 4.375 24.7778 4.375 22.9688C4.375 21.1597 5.84719 19.6875 7.65625 19.6875H27.3438C31.5656 19.6875 35 16.2531 35 12.0312C35 7.80938 31.5656 4.375 27.3438 4.375H8.14187C7.38281 3.07344 5.98719 2.1875 4.375 2.1875C1.96219 2.1875 0 4.14969 0 6.5625C0 8.97531 1.96219 10.9375 4.375 10.9375C5.98719 10.9375 7.38281 10.0516 8.14187 8.75H27.3438C29.1528 8.75 30.625 10.2222 30.625 12.0312C30.625 13.8403 29.1528 15.3125 27.3438 15.3125H7.65625C3.43438 15.3125 0 18.7469 0 22.9688C0 27.1906 3.43438 30.625 7.65625 30.625H26.8581C27.6172 31.9266 29.0128 32.8125 30.625 32.8125C33.0378 32.8125 35 30.8503 35 28.4375C35 26.0247 33.0378 24.0625 30.625 24.0625Z" fill="#FF0101"/>
</svg>
