<svg width="61" height="66" viewBox="0 0 61 66" fill="none" xmlns="http://www.w3.org/2000/svg">
<g clip-path="url(#clip0_2_266)">
<path fill-rule="evenodd" clip-rule="evenodd" d="M28.5212 0.0494176C25.7844 0.208306 22.0484 1.01162 19.9027 1.90238C19.7569 1.96318 19.4286 2.08967 19.1736 2.18421C14.9375 3.74867 9.76944 7.57444 6.59421 11.4952C6.20845 11.9714 5.79973 12.4765 5.68574 12.618C4.38577 14.2287 1.40628 19.7547 1.40628 20.5558C1.40628 20.6326 1.29626 20.9175 1.16237 21.1896C1.02849 21.4612 0.786344 22.2229 0.625062 22.8822C0.463339 23.5414 0.274669 24.2648 0.205738 24.4899C-0.304174 26.1519 -0.179129 26.2224 4.32302 26.8136C5.48026 26.9654 6.8823 27.1759 7.77046 27.3311C8.17167 27.4014 9.09649 27.5579 9.82556 27.6796C10.5551 27.8008 11.3606 27.9494 11.6156 28.0094C11.8709 28.0698 12.5196 28.185 13.0578 28.2663C14.3971 28.4688 14.3184 28.3245 14.215 30.3931C14.1651 31.3896 14.0966 33.014 14.063 34.0027C14.029 34.9916 13.9433 36.4898 13.8721 37.3324C13.6565 39.8791 13.5779 43.2928 13.7286 43.5751C13.9729 44.034 14.5946 44.1245 17.5069 44.1245H20.3088L21.0507 45.0898C21.4585 45.6211 22.1351 46.4404 22.5539 46.911L23.3153 47.7657L23.2286 48.4425C23.1809 48.8144 23.089 49.5983 23.0244 50.1841C22.8525 51.7472 22.0529 54.5126 21.7731 54.5126C21.7361 54.5126 21.3595 54.4158 20.9367 54.2982C18.32 53.5686 17.7261 53.518 11.7954 53.5159C6.57167 53.5135 6.18989 53.5297 5.94024 53.7565C5.38174 54.264 5.46436 55.0133 6.15278 55.6799C14.0113 63.2897 23.4734 66.7542 33.8728 65.8297C36.5923 65.5879 40.3769 64.7428 42.1784 63.9751C42.3242 63.9127 42.9508 63.65 43.5703 63.3914C45.5163 62.5783 47.5873 61.5552 47.8135 61.2951C47.8497 61.2529 47.9691 61.1758 48.0787 61.1233C48.7414 60.8051 50.3918 59.6689 51.8292 58.5403C54.2466 56.6422 55.6363 55.185 55.6363 54.5483C55.6363 53.4776 55.8525 53.5131 49.3573 53.5155C43.1899 53.5176 42.9928 53.5355 40.0858 54.3578L39.1866 54.6121L39.0402 54.3378C38.4071 53.1498 37.5848 48.8699 37.7903 47.8337C37.8455 47.5576 38.1584 47.0832 38.6117 46.5883C39.0147 46.1488 39.6205 45.4147 39.958 44.9568L40.5719 44.1245H43.4677C47.7898 44.1245 47.5006 44.4432 47.2881 39.9104C47.083 35.5278 46.9201 32.1822 46.8163 30.2183L46.7288 28.5593L47.2378 28.423C47.5179 28.348 48.0153 28.2512 48.3437 28.2082C48.672 28.1652 49.1493 28.0782 49.4047 28.0152C49.8456 27.906 51.2809 27.6557 53.3161 27.333C53.8264 27.2522 54.6023 27.1284 55.0398 27.0583C55.9779 26.9074 57.0311 26.7582 58.9904 26.4983C60.6873 26.2732 60.9401 26.1134 60.9401 25.2666C60.9401 24.9527 60.8804 24.6588 60.8074 24.6137C60.7346 24.5683 60.6749 24.3966 60.6749 24.2323C60.6749 23.2486 59.1818 19.0885 58.0883 17.0256C57.5662 16.0412 55.7247 13.0743 55.4612 12.7938C55.3752 12.7024 55.0428 12.2741 54.7226 11.8418C51.9861 8.15317 46.0721 3.71539 41.8466 2.1811C41.5917 2.08834 41.2634 1.96318 41.1174 1.90238C40.0526 1.46033 36.6387 0.538511 35.4823 0.380953C35.1542 0.336127 34.5275 0.244701 34.09 0.177239C32.9974 0.00991821 30.278 -0.0526616 28.5212 0.0494176ZM29.3515 7.36893C29.3776 11.3234 29.3472 12.634 29.2278 12.7081C29.1402 12.7623 28.5578 12.8781 27.9331 12.966C27.3087 13.0534 26.7379 13.1724 26.6649 13.2301C26.5921 13.2878 26.2576 13.3761 25.9218 13.4262L25.3111 13.5177L25.1716 13.0059C24.7955 11.6301 23.86 8.85886 22.4386 4.90617C21.8791 3.3519 21.8695 3.37499 23.2177 3.0461C23.7279 2.92139 24.3544 2.7665 24.61 2.70215C25.7752 2.40745 28.6486 2.03552 29.1841 2.10964C29.2693 2.12162 29.329 4.003 29.3515 7.36893ZM35.0185 2.4607C38.994 3.17703 38.9629 3.1606 38.5548 4.31543C38.4146 4.71178 38.1411 5.57545 37.9467 6.23453C37.6383 7.28017 37.0103 9.32442 36.4744 11.0291C36.3821 11.3221 36.2045 11.9217 36.0795 12.361C35.9547 12.8004 35.828 13.2416 35.7984 13.3415C35.7413 13.5328 34.6322 13.448 34.3552 13.231C34.2822 13.1737 33.7155 13.0565 33.0954 12.97C32.476 12.8839 31.8645 12.7822 31.7367 12.7445C31.5167 12.6797 31.3493 2.37327 31.5644 2.1567C31.6847 2.03641 33.5956 2.20419 35.0185 2.4607ZM20.547 5.77517C20.8125 6.47464 21.0299 7.11996 21.0299 7.20873C21.0299 7.29749 21.0874 7.47458 21.1581 7.6015C21.2955 7.84916 22.0255 9.92537 22.246 10.6963C22.3194 10.9528 22.5826 11.785 22.8313 12.5461C23.3987 14.281 23.4028 14.5052 22.8729 14.7977C22.5375 14.9827 21.5009 15.6959 20.4135 16.4895C20.2125 16.6364 19.8917 16.3186 18.7115 14.8061C18.3478 14.3405 18.0027 13.9242 17.9439 13.8816C17.8856 13.839 17.7058 13.6215 17.5445 13.3978C17.2904 13.0459 16.5423 12.1347 15.5455 10.9621C13.2774 8.29519 13.1789 8.15096 13.4307 7.87047C14.029 7.20385 17.5383 5.14095 19.4388 4.33852C19.8877 4.14901 19.9712 4.2573 20.547 5.77517ZM43.0883 5.04775C45.3598 6.1937 47.681 7.70536 47.681 8.03867C47.681 8.23439 41.0464 16.4886 40.855 16.5312C40.7516 16.5543 40.3659 16.3342 39.9982 16.0421C39.6307 15.7501 38.9709 15.2925 38.533 15.0253C37.7093 14.5229 37.5614 14.222 37.8579 13.6579C37.9251 13.5305 38.0809 13.0667 38.2053 12.6273C38.4959 11.599 38.8786 10.3457 39.7142 7.68672C40.0849 6.50747 40.3884 5.44719 40.3884 5.33046C40.3884 5.21374 40.4481 5.08148 40.5209 5.03621C40.5939 4.99093 40.6536 4.8174 40.6536 4.65098C40.6536 3.96393 41.0755 4.03273 43.0883 5.04775ZM51.1141 10.9284C51.872 11.7162 52.7367 12.6908 53.036 13.0934C53.335 13.4964 53.6109 13.8559 53.6483 13.8927C53.6864 13.9291 53.951 14.305 54.2365 14.7275C54.7973 15.5575 54.7945 15.5734 54.0028 16.0137C53.7239 16.1691 52.7393 16.734 51.8151 17.2693C48.3593 19.2705 45.8149 20.685 45.6704 20.685C45.6096 20.685 45.5595 20.7355 45.5595 20.7977C45.5595 21.1048 44.4628 21.4208 44.3117 21.1572C44.0086 20.6268 42.7479 18.7743 42.5669 18.5923C42.4626 18.4871 42.3772 18.3549 42.3772 18.2976C42.3772 18.2022 45.0687 14.7377 46.1945 13.3841C46.4574 13.0681 46.7949 12.6407 46.9447 12.4347C47.8435 11.1982 49.3332 9.49751 49.5187 9.49663C49.638 9.49617 50.356 10.1402 51.1141 10.9284ZM12.619 10.7305C15.986 14.6756 18.643 17.9741 18.643 18.2093C18.643 18.3118 18.4455 18.6332 18.2037 18.9234C17.9625 19.2137 17.5639 19.7738 17.3183 20.1679C16.549 21.4022 16.5733 21.3866 15.9798 21.0103C15.6975 20.8314 15.4399 20.685 15.4076 20.685C15.3754 20.685 14.8226 20.3792 14.1784 20.0055C13.1382 19.4014 8.23706 16.6719 6.94771 15.9782C6.67772 15.8331 6.43028 15.6449 6.39802 15.5606C6.34278 15.4168 7.11119 14.0671 7.34228 13.9016C7.40016 13.8599 7.64099 13.5563 7.87782 13.2265C8.68026 12.1085 11.1114 9.63067 11.4048 9.63155C11.5873 9.63198 12.0022 10.0079 12.619 10.7305ZM32.8966 15.0724C37.8861 15.9156 42.0401 19.8275 43.8487 25.3859C44.3731 26.9979 44.5927 26.8061 41.3826 27.5386C36.6424 28.6197 34.236 29.7123 32.9443 31.3696C32.7005 31.6824 32.4556 31.9584 32.4004 31.9829C32.3452 32.0072 32.3 32.0926 32.3 32.1719C32.3 32.2519 32.2157 32.4116 32.1128 32.5275C31.6581 33.037 31.1265 35.1539 30.994 36.9852C30.8583 38.8555 30.0462 39.0335 30.0462 37.1928C30.0462 35.545 29.195 32.4853 28.6034 32.0051C28.5578 31.9683 28.2867 31.6686 28.0003 31.3393C26.566 29.6893 24.3311 28.601 20.7644 27.8163C20.2178 27.6959 19.5912 27.5452 19.3725 27.4807C19.1538 27.4169 18.5272 27.261 17.9802 27.135C16.6656 26.8315 16.6926 26.8904 17.1844 25.39C19.042 19.7254 23.2776 15.7665 28.207 15.0888C28.8173 15.0049 29.3449 14.9073 29.3797 14.8722C29.485 14.7666 31.9019 14.9042 32.8966 15.0724ZM5.5894 17.6084C5.65879 17.674 6.16295 17.9661 6.70998 18.2572C7.25656 18.548 7.94278 18.9216 8.2344 19.0876C8.52647 19.2532 9.27189 19.6619 9.89185 19.9953C10.5118 20.3286 11.4565 20.8598 11.9911 21.1758C12.5258 21.4918 12.9875 21.7501 13.0167 21.7501C13.0459 21.7501 13.4435 21.9756 13.9004 22.2517C14.3578 22.5273 14.903 22.8409 15.1125 22.9484C15.6312 23.2157 15.6564 23.3474 15.3546 24.2401C15.211 24.6651 15.0188 25.2993 14.9273 25.6491C14.713 26.4712 14.7152 26.4701 13.4347 26.2153C12.8355 26.096 12.0468 25.9393 11.6818 25.8671C11.3173 25.7946 10.6311 25.6749 10.157 25.6011C9.68329 25.527 8.99707 25.4169 8.63253 25.3567C8.26755 25.2958 7.49208 25.1765 6.90882 25.0912C6.32512 25.0065 5.54965 24.8814 5.18511 24.8139C4.82013 24.7463 4.05481 24.6195 3.48349 24.532L2.44509 24.3723L2.52949 23.9204C2.63334 23.3653 3.22677 21.502 3.40042 21.186C3.47024 21.0586 3.52766 20.8931 3.52766 20.8176C3.52766 20.6486 4.66016 18.2009 4.92927 17.7881C5.13472 17.4734 5.37776 17.4069 5.5894 17.6084ZM56.2589 18.089C56.5063 18.5297 57.1514 19.9664 57.6334 21.151C57.8563 21.6977 58.4093 23.4846 58.4907 23.9204L58.5752 24.3723L57.5367 24.5374C56.9654 24.6279 56.2 24.7552 55.8351 24.8197C55.4706 24.8844 54.6952 25.0033 54.1115 25.0845C53.528 25.1658 52.7226 25.2896 52.3213 25.3601C51.9206 25.4302 51.1152 25.5689 50.5313 25.6673C49.9481 25.7658 48.904 25.9546 48.2112 26.0859C46.4689 26.4166 46.3341 26.4116 46.2162 26.0122C46.1622 25.8288 45.958 25.1733 45.7628 24.555L45.4071 23.4309L45.7151 23.197C45.8848 23.0688 46.2622 22.8371 46.5537 22.6825C46.8454 22.5286 47.263 22.2951 47.4822 22.1646C47.7009 22.0341 48.2082 21.7435 48.6089 21.5188C49.0102 21.2943 49.7171 20.8949 50.1797 20.6313C50.6424 20.3676 51.039 20.1519 51.0613 20.1519C51.0833 20.1519 51.5058 19.9052 52.0003 19.6034C52.4951 19.3016 53.1721 18.9021 53.5056 18.7157C54.8846 17.9448 55.0513 17.8476 55.305 17.6692C55.696 17.394 55.9257 17.4952 56.2589 18.089ZM44.6886 29.7856C44.7575 30.4273 44.8817 32.899 45.161 39.1911C45.2241 40.6167 45.2464 41.83 45.2108 41.8881C45.1173 42.0403 39.4923 42.0203 39.3983 41.8672C39.3553 41.798 39.5242 41.3338 39.7729 40.8353C40.894 38.5911 41.9119 35.585 42.4922 32.8039C42.5761 32.4015 42.7338 31.6635 42.8425 31.1645C42.9513 30.6657 43.0401 30.0887 43.0401 29.8823C43.0401 29.4399 43.2792 29.209 43.8695 29.0809C44.5067 28.9422 44.6073 29.0288 44.6886 29.7856ZM17.5812 29.2468C17.8313 29.3741 17.9333 29.5596 18.0014 30.0107C18.0955 30.6386 18.4477 32.5025 18.6421 33.4035C18.8073 34.1691 19.6844 37.1384 19.901 37.6651C19.961 37.8116 20.1846 38.381 20.3976 38.9305C20.6101 39.48 20.9901 40.337 21.242 40.8353C21.4938 41.3338 21.6648 41.798 21.622 41.8672C21.5262 42.0235 15.9021 42.0386 15.8062 41.8829C15.7686 41.8221 15.7929 40.6384 15.8597 39.2528C15.9264 37.8666 16.0435 35.3244 16.1199 33.6032C16.34 28.6653 16.3541 28.6231 17.5812 29.2468ZM20.9539 30.0044C21.1779 30.0758 21.8686 30.2901 22.488 30.481C25.1945 31.3137 27.3941 33.0791 27.3941 34.4176C27.3941 34.988 24.2397 35.1354 22.4444 34.6485C21.1877 34.3082 20.9764 34.1239 20.7639 33.1842C19.9513 29.5942 19.946 29.6826 20.9539 30.0044ZM40.8409 29.9887C40.9019 30.0878 40.7272 31.0694 40.2502 33.3126C40.0903 34.0644 40.0447 34.1265 39.4768 34.3671C37.7744 35.0892 33.6262 35.1451 33.6262 34.4458C33.6262 33.0987 35.8567 31.2971 38.5481 30.4711C39.1592 30.2835 39.8082 30.0788 39.9903 30.0162C40.4415 29.8615 40.7566 29.8511 40.8409 29.9887ZM27.9468 38.286C27.9384 40.3073 27.9483 40.3165 30.1849 40.3729C32.9802 40.4434 33.1057 40.3552 33.0766 38.3247C33.0522 36.6261 33.031 36.6569 34.0547 36.8774C35.0913 37.1006 36.9733 37.1157 38.089 36.9093C38.6085 36.813 38.9824 36.8001 39.0567 36.8759C39.2572 37.0806 37.6852 40.5483 36.6321 42.2241C36.0268 43.1872 36.4536 44.1245 37.4977 44.1245C37.9895 44.1245 37.6516 44.6119 36.1567 46.0588C34.5868 47.5785 31.2489 49.718 30.4486 49.718C29.466 49.718 25.9873 47.3906 24.116 45.4809C22.972 44.3135 22.8968 44.1245 23.5781 44.1245C24.5997 44.1245 24.958 43.1242 24.3082 42.0869C23.6436 41.0266 23.0858 39.9154 22.4319 38.3477C21.7541 36.7233 21.7785 36.6506 22.9101 36.9129C23.7716 37.1131 25.7769 37.098 26.8638 36.8837C27.9637 36.6665 27.9534 36.6532 27.9468 38.286ZM35.7997 49.529C35.8438 49.6449 35.88 49.9627 35.88 50.2346C35.88 50.923 36.3515 53.0356 36.7952 54.3343L37.1663 55.4211L36.8217 55.5961C34.4594 56.7961 32.4419 58.5005 31.2821 60.2752C30.6025 61.3151 30.6413 61.3205 29.7956 60.0613C28.7408 58.4915 26.7154 56.7993 24.5768 55.7016C23.8852 55.3471 23.8534 55.2614 24.1464 54.5571C24.4614 53.7999 25.1106 50.9129 25.1746 49.9852C25.2095 49.4761 25.5074 49.3076 25.8201 49.62C26.6315 50.4305 29.921 52.034 30.5888 51.9437C31.2091 51.8603 33.2651 50.8449 34.5682 49.9786C35.6719 49.2444 35.6882 49.2384 35.7997 49.529ZM17.1181 55.684C19.5687 55.9972 20.847 56.3687 20.7096 56.7278C20.4228 57.4796 18.0774 59.7173 16.9679 60.298L16.4739 60.5566L15.3431 59.965C13.2809 58.8862 9.42655 56.1176 9.53304 55.7913C9.63821 55.4705 14.8686 55.3968 17.1181 55.684ZM51.6865 55.6857C51.8177 55.8179 49.346 57.9753 49.0635 57.9753C49.0053 57.9753 48.8342 58.0858 48.684 58.2217C48.3088 58.5594 46.1896 59.8457 45.2706 60.2935L44.5176 60.6605L43.6131 60.0645C41.3507 58.5727 39.7898 56.5298 40.7617 56.3324C40.9575 56.2924 41.2964 56.2236 41.5151 56.1787C41.7338 56.1344 42.1219 56.0377 42.3772 55.9639C43.9335 55.514 51.2963 55.2942 51.6865 55.6857ZM23.8583 57.6683C26.3698 58.9522 28.9658 61.8003 29.033 63.3456L29.0514 63.7687L27.9247 63.7274C26.9001 63.6896 26.0344 63.5866 24.9413 63.3723C22.9193 62.9758 22.3859 62.8606 22.1567 62.769C22.0109 62.7105 21.5336 62.5609 21.0962 62.4362C19.4149 61.9559 18.7972 61.5782 19.2748 61.3213C19.6849 61.1007 22.2224 58.4302 22.2231 58.2187C22.2231 58.1692 22.3789 57.9426 22.5698 57.7147C22.9379 57.276 23.0807 57.2706 23.8583 57.6683ZM38.8189 58.2737C39.3906 59.119 41.1136 60.9339 41.7122 61.3213C42.0772 61.5574 41.9164 61.9706 41.459 61.9706C41.337 61.9706 41.1804 62.0204 41.1108 62.0813C41.0414 62.1419 40.5969 62.2986 40.1228 62.4287C39.6491 62.5592 39.1419 62.7144 38.9961 62.774C38.7371 62.8795 37.613 63.1353 36.1452 63.4224C34.8655 63.6724 32.2872 63.8755 32.1494 63.7371C31.4407 63.0253 34.1846 59.5817 36.6083 58.1417C38.0952 57.2581 38.134 57.2605 38.8189 58.2737Z" fill="#BFAC8E"/>
<path fill-rule="evenodd" clip-rule="evenodd" d="M28.8987 42.1261C28.5179 42.2804 27.2617 43.1917 27.2617 43.3136C27.2617 43.9857 30.1086 45.1745 31.1548 44.9393C32.1721 44.7104 33.9002 43.5295 33.6978 43.201C33.2626 42.4935 31.1766 41.6907 30.9078 42.1269C30.8629 42.2002 30.6839 42.26 30.5101 42.26C30.3365 42.26 30.1576 42.2002 30.1125 42.1269C30.0136 41.9663 29.2946 41.9659 28.8987 42.1261Z" fill="#D56AB7"/>
</g>
<defs>
<clipPath id="clip0_2_266">
<rect width="61" height="66" fill="white"/>
</clipPath>
</defs>
</svg>
