<svg width="87" height="105" viewBox="0 0 87 105" fill="none" xmlns="http://www.w3.org/2000/svg">
<g filter="url(#filter0_d_23_983)">
<path d="M43.5 30C36.2289 30 30.3135 35.9154 30.3135 43.1865C30.3135 45.1694 30.743 47.0751 31.5898 48.852C31.6068 48.89 31.6247 48.9273 31.6438 48.9647L41.6069 68.2552C41.9726 68.9632 42.703 69.4081 43.4998 69.4081C44.2968 69.4081 45.0271 68.9634 45.3927 68.2552L55.3531 48.97C55.3703 48.9367 55.3863 48.9031 55.4017 48.8692C56.2541 47.0872 56.6861 45.1757 56.6861 43.1865C56.6865 35.9154 50.7711 30 43.5 30ZM43.5 33C39.6941 33 43.4998 64.8058 43.4998 61C49.6067 66.5 39.6941 36.2846 43.5 36.2846C41.6069 61.5 50.4021 39.3808 50.4021 43.1865C50.4021 46.9923 54.5 43.1865 43.5 33Z" fill="#BFAC8E"/>
<path d="M48.5794 72.4434H38.4207C37.7145 72.4434 37.1423 73.0155 37.1423 73.7217C37.1423 74.4278 37.7145 75 38.4207 75H48.5794C49.2855 75 49.8577 74.4278 49.8577 73.7217C49.8577 73.0155 49.2854 72.4434 48.5794 72.4434Z" fill="#BFAC8E"/>
<path d="M45.6515 38.5208C45.6568 38.5182 45.6624 38.5157 45.6677 38.5131C46.4036 38.1451 46.8088 37.6025 46.8088 36.9853C46.8088 36.368 46.4036 35.8254 45.6677 35.4575C45.0776 35.1625 44.3078 35 43.5 35C42.6922 35 41.9224 35.1625 41.3323 35.4575C40.5964 35.8254 40.1912 36.368 40.1912 36.9853C40.1912 37.6026 40.5964 38.1452 41.3323 38.5131C41.3376 38.5157 41.3432 38.5182 41.3485 38.5209C40.771 39.082 40.4118 39.8665 40.4118 40.7353C40.4118 42.4409 41.7944 43.8235 43.5 43.8235C45.2056 43.8235 46.5883 42.4409 46.5883 40.7353C46.5883 39.8665 46.229 39.082 45.6515 38.5208ZM45.0758 37.3293C44.6719 37.5312 44.0975 37.6471 43.5 37.6471C42.9025 37.6471 42.3282 37.5312 41.9242 37.3293C41.5859 37.1601 41.5147 37.0082 41.5147 36.9853C41.5147 36.9624 41.5859 36.8105 41.9242 36.6413C42.3282 36.4394 42.9025 36.3235 43.5 36.3235C44.0975 36.3235 44.6719 36.4394 45.0758 36.6413C45.4142 36.8105 45.4853 36.9624 45.4853 36.9853C45.4853 37.0082 45.4142 37.1601 45.0758 37.3293Z" fill="white"/>
<path d="M49.4427 48.3112C48.941 46.5422 47.6705 45.0965 46.0154 44.3575C45.3013 44.8549 44.4342 45.147 43.4999 45.147C42.5657 45.147 41.6985 44.8549 40.9845 44.3575C39.3293 45.0966 38.0589 46.5422 37.5572 48.3112C37.317 49.1578 37.9497 50 38.8297 50H48.1702C49.0502 50 49.6828 49.1578 49.4427 48.3112Z" fill="white"/>
<path d="M47.8891 41.1765C47.8071 41.9981 47.4995 42.7542 47.0283 43.381C47.8478 43.8175 48.5699 44.3961 49.1665 45.0829C50.0367 44.0185 50.5589 42.6586 50.5589 41.1765H47.8891Z" fill="white"/>
<path d="M39.111 41.1765H36.4412C36.4412 42.6586 36.9634 44.0185 37.8336 45.083C38.4302 44.3961 39.1522 43.8175 39.9718 43.381C39.5005 42.7542 39.193 41.9981 39.111 41.1765Z" fill="white"/>
</g>
<defs>
<filter id="filter0_d_23_983" x="-9" y="0" width="105" height="105" filterUnits="userSpaceOnUse" color-interpolation-filters="sRGB">
<feFlood flood-opacity="0" result="BackgroundImageFix"/>
<feColorMatrix in="SourceAlpha" type="matrix" values="0 0 0 0 0 0 0 0 0 0 0 0 0 0 0 0 0 0 127 0" result="hardAlpha"/>
<feOffset/>
<feGaussianBlur stdDeviation="15"/>
<feColorMatrix type="matrix" values="0 0 0 0 0.729167 0 0 0 0 0.591778 0 0 0 0 0.106337 0 0 0 1 0"/>
<feBlend mode="normal" in2="BackgroundImageFix" result="effect1_dropShadow_23_983"/>
<feBlend mode="normal" in="SourceGraphic" in2="effect1_dropShadow_23_983" result="shape"/>
</filter>
</defs>
</svg>
